<?xml version="1.0" encoding="utf-8"?>
<!-- Generator: Adobe Illustrator 26.0.0, SVG Export Plug-In . SVG Version: 6.00 Build 0)  -->
<svg version="1.1" id="Camada_1" xmlns="http://www.w3.org/2000/svg" xmlns:xlink="http://www.w3.org/1999/xlink" x="0px" y="0px"
	 viewBox="0 0 31.9 32" style="enable-background:new 0 0 31.9 32;" xml:space="preserve">
<style type="text/css">
	.st0{fill:#FFFFFF;}
</style>
<path class="st0" d="M25.8,6.1c-3.7-0.4-7.1-1.9-9.9-4.1c-2.8,2.2-6.2,3.6-9.9,4.1C5.7,9.7,4.3,13.1,2,16c2.2,2.8,3.6,6.2,4.1,9.9
	c3.5,0.4,6.9,1.8,9.8,4.1c2.8-2.2,6.2-3.6,9.9-4.1c0.4-3.5,1.8-6.9,4.1-9.8C27.7,13.2,26.2,9.8,25.8,6.1z M15.7,21.2
	c-4-0.8-7-4.3-7-8.5c0-0.6,0.1-1.1,0.2-1.6c1.6-2.2,4.1-3.7,7.1-3.7c3.9,0,7.2,2.6,8.2,6.1c-2.9-3.1-6.6-2.9-8-2.6
	c4,0.8,7,4.3,7,8.5c0,0.6-0.1,1.1-0.2,1.6c0,0,0,0,0,0c-1.6,2.2-4.1,3.7-7.1,3.7c-3.9,0-7.2-2.6-8.2-6.1
	C10.6,21.7,14.3,21.4,15.7,21.2z"/>
</svg>
